<?xml version="1.0" standalone="no"?>
<svg
  width="600"
  height="600"
  viewBox="0 0 600 600"
  xmlns="http://www.w3.org/2000/svg"
>
  <g transform="translate(300,300)">
    <path d="M105.5,-146.7C133.4,-124.9,150.4,-89.7,173.2,-49.3C195.9,-8.9,224.4,36.7,217.7,74.9C211,113,169,143.9,126.8,160.9C84.6,177.8,42.3,180.9,0.9,179.7C-40.6,178.5,-81.1,173,-112.7,152.6C-144.2,132.1,-166.7,96.8,-180.2,57.9C-193.7,19.1,-198.1,-23.4,-193.2,-70.3C-188.3,-117.2,-174.1,-168.6,-140.3,-188.5C-106.6,-208.4,-53.3,-196.7,-7.2,-186.7C38.8,-176.7,77.6,-168.5,105.5,-146.7Z" fill="#ff6900" />
  </g>
</svg>
  