<?xml version="1.0" standalone="no"?>
<svg
  width="600"
  height="600"
  viewBox="0 0 600 600"
  xmlns="http://www.w3.org/2000/svg"
>
  <g transform="translate(300,300)">
    <path d="M123.9,-184C168.2,-164.4,216.9,-142.8,233.6,-106.6C250.3,-70.3,235,-19.4,221.4,27.4C207.7,74.1,195.7,116.6,170.2,149.4C144.8,182.2,105.9,205.3,63.3,219.5C20.8,233.8,-25.5,239.2,-73,232.6C-120.4,226,-169.1,207.3,-198,172.4C-226.9,137.5,-236.2,86.4,-241.9,35.8C-247.6,-14.8,-249.8,-64.9,-229.3,-102.5C-208.7,-140.1,-165.4,-165.1,-123.5,-185.8C-81.5,-206.4,-40.7,-222.7,-0.5,-222C39.8,-221.3,79.7,-203.6,123.9,-184Z" fill="#9900ef" />
  </g>
</svg>
  